<svg xmlns="http://www.w3.org/2000/svg" viewBox="0 0 48 48" width="48" height="48">
  <circle cx="24" cy="24" r="20" fill="#000000"/>
  <path d="M24 10.5a13.5 13.5 0 0 1 13.5 13.5A13.5 13.5 0 0 1 24 37.5 13.5 13.5 0 0 1 10.5 24 13.5 13.5 0 0 1 24 10.5z" fill="none" stroke="white" stroke-width="1.5"/>
  <path d="M24 14.5l4.5 7.5H19.5L24 14.5z" fill="white"/>
  <path d="M24 33.5l-4.5-7.5H28.5L24 33.5z" fill="white"/>
  <path d="M14.5 24l7.5-4.5v9L14.5 24z" fill="white" opacity="0.7"/>
  <path d="M33.5 24l-7.5 4.5v-9l7.5 4.5z" fill="white" opacity="0.7"/>
</svg>
